<svg xmlns="http://www.w3.org/2000/svg" width="32" height="32" viewBox="0 0 32 32">
    <path d="m26.867 17.337c0.0514-0.4286 0.0857-0.8743 0.0857-1.3372s-0.0343-0.9086-0.1029-1.3372l2.8972-2.2629c0.2572-0.2057 0.3258-0.5828 0.1715-0.8743l-2.7429-4.7487c-0.1715-0.30857-0.5315-0.41143-0.8401-0.30857l-3.4115 1.3715c-0.72-0.54859-1.4743-0.99431-2.3143-1.3372l-0.5143-3.6344c-0.0514-0.34286-0.3429-0.58287-0.6857-0.58287h-5.4859c-0.3428 0-0.6171 0.24001-0.6686 0.58287l-0.5143 3.6344c-0.84 0.34287-1.6114 0.80574-2.3143 1.3372l-3.4115-1.3715c-0.30858-0.12001-0.66859 0-0.84002 0.30857l-2.7429 4.7487c-0.17144 0.3086-0.10286 0.6686 0.17143 0.8743l2.8972 2.2629c-0.06857 0.4286-0.12 0.8915-0.12 1.3372s0.03428 0.9086 0.10286 1.3372l-2.8972 2.2629c-0.25714 0.2057-0.32572 0.5829-0.17143 0.8743l2.7429 4.7487c0.17144 0.3086 0.53144 0.4114 0.84002 0.3086l3.4116-1.3715c0.72 0.5486 1.4743 0.9943 2.3143 1.3372l0.5143 3.6343c0.0686 0.3429 0.3429 0.5829 0.6857 0.5829h5.4859c0.3428 0 0.6343-0.24 0.6686-0.5829l0.5142-3.6343c0.8401-0.3429 1.6115-0.8058 2.3144-1.3372l3.4115 1.3715c0.3086 0.12 0.6686 0 0.84-0.3086l2.7429-4.7487c0.1715-0.3086 0.1029-0.6686-0.1714-0.8743l-2.8629-2.2629zm-10.2 3.8058c-2.8286 0-5.1429-2.3144-5.1429-5.143s2.3143-5.143 5.1429-5.143c2.8287 0 5.143 2.3144 5.143 5.143s-2.3143 5.143-5.143 5.143z" />
</svg>
