<svg xmlns="http://www.w3.org/2000/svg" width="32" height="32" viewBox="0 0 32 32">
    <path d="m15 24h2.6667v-2.6667h-2.6667v2.6667zm1.3333-21.333c-7.36 0-13.333 5.9733-13.333 13.333 0 7.36 5.9733 13.333 13.333 13.333 7.36 0 13.333-5.9733 13.333-13.333 0-7.36-5.9734-13.333-13.333-13.333zm0 24c-5.88 0-10.667-4.7867-10.667-10.667s4.7866-10.667 10.667-10.667 10.667 4.7867 10.667 10.667-4.7867 10.667-10.667 10.667zm0-18.667c-2.9466 0-5.3333 2.3867-5.3333 5.3333h2.6667c0-1.4666 1.2-2.6666 2.6666-2.6666 1.4667 0 2.6667 1.2 2.6667 2.6666 0 2.6667-4 2.3334-4 6.6667h2.6667c0-3 4-3.3333 4-6.6667 0-2.9466-2.3867-5.3333-5.3334-5.3333z" />
</svg>
